PathFileType	4	(X/Y/Z)	C:\Users\Basilio\Documents\Thesis Gigler\squatting_fais\c3dfiles\044\SJ_pre2\markers_experimental.trc
DataRate	CameraRate	NumFrames	NumMarkers	Units	OrigDataRate	OrigDataStartFrame	OrigNumFrames
200.000000	200.000000	4	62	mm	200.000000	854	1708
Frame#	Time	FHD			LBHD			RBHD			C7			T10			CLAV			LSHO			LUUPA			LMUPA			LDUPA			LLEP			LMEP			LRAD			LUL			LRFIN			RSHO			RUPA1			RMUPA			RDUPA			RLEP			RMEP			RRAD			RUL			RUFIN			LASI			RASI			USACR			LSACR			LTHI1			LTHI2			LTHI3			LTHI4			LLFC			LMFC			LTIB1			LTIB2			LTIB3			LTIB4			LLMAL			LMMAL			LHEE			LMT1			LMT2			LMT5			RTHI			RTHI2			RTHI3			RTHI4			RLFC			RMFC			RTIB1			RTIB2			RTIB3			RTIB4			RLMAL			RMMAL			RHEE			RMT1			RMT2			RMT5			RSACR			*61			
		X1	Y1	Z1	X2	Y2	Z2	X3	Y3	Z3	X4	Y4	Z4	X5	Y5	Z5	X6	Y6	Z6	X7	Y7	Z7	X8	Y8	Z8	X9	Y9	Z9	X10	Y10	Z10	X11	Y11	Z11	X12	Y12	Z12	X13	Y13	Z13	X14	Y14	Z14	X15	Y15	Z15	X16	Y16	Z16	X17	Y17	Z17	X18	Y18	Z18	X19	Y19	Z19	X20	Y20	Z20	X21	Y21	Z21	X22	Y22	Z22	X23	Y23	Z23	X24	Y24	Z24	X25	Y25	Z25	X26	Y26	Z26	X27	Y27	Z27	X28	Y28	Z28	X29	Y29	Z29	X30	Y30	Z30	X31	Y31	Z31	X32	Y32	Z32	X33	Y33	Z33	X34	Y34	Z34	X35	Y35	Z35	X36	Y36	Z36	X37	Y37	Z37	X38	Y38	Z38	X39	Y39	Z39	X40	Y40	Z40	X41	Y41	Z41	X42	Y42	Z42	X43	Y43	Z43	X44	Y44	Z44	X45	Y45	Z45	X46	Y46	Z46	X47	Y47	Z47	X48	Y48	Z48	X49	Y49	Z49	X50	Y50	Z50	X51	Y51	Z51	X52	Y52	Z52	X53	Y53	Z53	X54	Y54	Z54	X55	Y55	Z55	X56	Y56	Z56	X57	Y57	Z57	X58	Y58	Z58	X59	Y59	Z59	X60	Y60	Z60	X61	Y61	Z61	X62	Y62	Z62	

855	4.27	-36.65305709838868	1279.9248046875	-901.2884521484377	-171.4268951416016	1258.804809570313	-981.7849731445315	-219.1656951904297	1248.099975585938	-822.4682617187502	-290.0380554199219	1146.168334960938	-902.9979248046877	-501.3886718750001	929.6571044921877	-901.376403808594	-209.8607177734376	1022.529846191406	-906.8802490234377	-219.3184509277344	1087.923461914063	-1079.447875976563	-385.6595153808595	1013.311950683594	-1229.75	-391.5843200683595	964.6154785156252	-1221.302368164063	-436.9366455078126	977.1619262695315	-1260.301879882813	-478.030975341797	935.6386718750002	-1273.623413085938	-530.7965698242189	977.5366821289065	-1222.153442382813	-591.6489257812501	731.0628051757814	-1115.974975585938	-557.2419433593751	697.3656616210939	-1166.484375	-537.0119018554689	725.7117919921876	-1076.684814453125	-220.7848052978516	1070.8466796875	-717.9350585937501	-363.0888366699219	983.506286621094	-562.1422119140626	-369.1613159179688	933.876892089844	-573.3080444335939	-408.761444091797	941.2983398437502	-528.8621826171876	-447.1455078125001	893.7354125976565	-513.7754516601564	-513.8560180664064	938.7357177734377	-550.7540893554689	-588.8864746093751	705.6525268554689	-671.1088867187501	-545.2891235351564	668.6549072265626	-624.7994384765626	-528.1198730468751	709.3890991210939	-715.6466064453126	-484.8906250000001	687.9902954101564	-1021.439331054688	-477.7576904296876	682.7349853515626	-792.0999145507815	-601.4364624023439	801.5442504882815	-895.5760498046877	-628.0760498046876	779.6936645507815	-920.931579589844	-502.132781982422	579.4729003906251	-1132.418090820313	-419.1021423339845	570.9990234375001	-1155.181518554688	-394.7094726562501	609.3828125000001	-1143.34814453125	-387.7762756347657	520.4219360351564	-1163.735473632813	-257.6372680664063	447.2781677246095	-1177.131469726563	-241.4697418212891	436.5107727050782	-1064.499633789063	-284.2619628906251	281.1923522949219	-1100.635009765625	-333.8567199707032	250.4076080322266	-1168.001953125	-305.7940063476563	236.3530273437501	-1132.777954101563	-356.2875976562501	176.8843688964844	-1097.593872070313	-455.5060119628907	92.39049530029298	-1142.325073242188	-432.2608337402345	100.6539077758789	-1057.252197265625	-520.5385742187501	49.15867233276369	-1094.498168945313	-303.5734252929688	62.37921524047853	-1083.775390625	-307.4695129394532	65.06247711181642	-1130.202758789063	-344.1815185546876	42.30441665649415	-1174.585205078125	-446.3835449218751	534.5606079101564	-691.4191284179689	-378.6467285156251	545.3096313476564	-684.7453613281251	-363.7117004394532	572.5106811523439	-692.8088378906251	-321.1952819824219	482.7666931152345	-689.2595214843751	-250.9183807373047	424.5120544433595	-693.1256103515626	-249.1698303222657	418.0666809082032	-811.6643066406252	-253.7049713134766	294.0420532226563	-723.3776245117189	-352.3720703125001	271.0442504882813	-675.2254028320314	-320.8340454101563	244.0668640136719	-694.5706787109376	-342.4817810058594	197.5747375488282	-721.2761840820314	-476.259002685547	93.51637268066408	-699.2312011718751	-454.5120849609376	98.34291839599612	-786.1390380859377	-538.6653442382814	49.21509933471681	-746.5217895507814	-325.2535705566407	63.16256332397462	-756.0122680664064	-322.1283874511719	61.21119308471681	-719.3366699218751	-358.9003295898438	41.9171485900879	-666.1074829101564	-623.3165283203126	780.556091308594	-864.9617919921877	nan	nan	nan	
856	4.275	-35.53026580810548	1277.945678710938	-901.660095214844	-170.8384704589844	1256.438110351563	-982.0159301757815	-218.6156005859376	1246.003051757813	-822.6002197265627	-289.3524475097657	1144.439697265625	-903.5130615234377	-500.8922424316407	928.092712402344	-901.4289550781252	-208.9077758789063	1019.997009277344	-907.0671997070315	-218.6802215576172	1085.84423828125	-1079.620849609375	-385.085662841797	1011.124572753906	-1229.860717773438	-390.2796936035157	963.244323730469	-1222.214233398438	-435.6388244628907	975.0679931640627	-1260.311645507813	-477.0258789062501	933.4208984375002	-1273.762329101563	-530.2454833984376	976.304138183594	-1222.50439453125	-591.1598510742189	729.1832885742189	-1115.891967773438	-557.1230468750001	696.3446655273439	-1166.415405273438	-536.8317871093751	724.1538696289064	-1076.647094726563	-220.0135192871094	1068.636474609375	-717.8683471679689	-362.3870239257813	981.468688964844	-561.9327392578126	-368.3141784667969	932.2320556640627	-573.5060424804689	-407.8371887207032	939.7333984375002	-528.7007446289064	-446.5036621093751	891.9895019531252	-515.5375976562501	-513.0816040039064	937.2088623046877	-550.5416870117189	-588.6950683593751	704.2834472656251	-670.9807739257814	-544.9278564453126	667.0468750000001	-624.3991088867189	-527.9699707031251	708.0761108398439	-715.7541503906251	-484.4151611328126	686.9636230468751	-1021.641723632813	-477.5115356445314	681.0677490234376	-792.228698730469	-601.2214355468751	800.0813598632815	-895.5336914062502	-627.9549560546876	778.0113525390627	-920.8872070312502	-501.9811401367189	578.2656250000001	-1132.578247070313	-418.9801330566407	570.3058471679689	-1155.165283203125	-394.6135253906251	608.5230712890626	-1143.311157226563	-387.2838439941407	519.7310180664064	-1163.741577148438	-256.9740905761719	446.8115234375001	-1177.210815429688	-240.692611694336	435.9524230957032	-1064.363647460938	-283.8409729003907	280.9673461914063	-1100.657958984375	-333.6365966796876	250.3228607177735	-1168.076904296875	-305.4808349609376	236.0791778564454	-1132.748291015625	-355.9786987304688	176.6042785644532	-1097.594360351563	-455.5741271972657	92.35388946533205	-1142.343139648438	-432.1560668945314	100.6404876708985	-1057.238891601563	-520.5136718750001	49.18692016601564	-1094.46435546875	-303.8517150878907	62.77125167846681	-1083.705078125	-307.4044799804688	64.9574432373047	-1130.248901367188	-344.1858520507813	42.2692985534668	-1174.61572265625	-446.0104064941407	533.6083984375001	-691.4696044921876	-378.2652893066407	544.5772705078126	-684.9180297851564	-363.4710388183594	571.9306640625001	-693.0994873046876	-320.3301391601563	482.1919555664064	-689.6040649414064	-250.2040405273438	424.1846618652345	-693.3651123046876	-248.5892944335938	417.583709716797	-811.880798339844	-253.3783264160157	293.6446228027344	-723.4860839843751	-352.0499877929688	270.9095458984376	-675.3764038085939	-320.3162536621094	243.894760131836	-694.9469604492189	-342.2403259277344	197.4798278808594	-721.4243164062501	-476.2311096191407	93.58081054687501	-699.3922729492189	-454.4458312988282	98.31641387939456	-786.1884765625002	-538.6447143554689	49.22801208496095	-746.5735473632814	-325.2840881347657	63.05032348632814	-755.9873046875001	-322.1369628906251	61.18188476562501	-719.3940429687501	-358.8925476074219	41.92490768432618	-666.1242065429689	-622.8754882812501	778.9993896484377	-864.8814086914065	nan	nan	nan	
857	4.28	-35.51337432861329	1276.32470703125	-902.1262207031252	-170.0393829345703	1254.329711914063	-982.246032714844	-217.7973022460938	1243.643798828125	-822.8833007812502	-288.6258850097657	1142.229248046875	-903.239685058594	-500.4400634765626	926.382019042969	-901.4280395507815	-208.4495086669922	1018.034240722656	-907.080261230469	-218.0218811035157	1083.606201171875	-1079.714233398438	-384.3856506347657	1009.445983886719	-1230.031372070313	-389.5994873046876	961.3499755859377	-1222.42431640625	-435.6775817871095	973.693054199219	-1260.558837890625	-477.0439758300782	932.170104980469	-1273.852172851563	-529.3418579101564	974.1516723632815	-1222.545532226563	-591.1343994140626	727.9526367187501	-1115.88427734375	-557.0925292968751	694.8040161132814	-1166.275756835938	-536.8150634765626	722.7964477539064	-1076.679077148438	-219.2117004394532	1066.635498046875	-717.9328002929689	-361.0077514648438	980.0772705078127	-562.4952392578126	-367.5807800292969	930.1408691406252	-573.5681152343751	-407.0596008300782	937.8521728515627	-528.5956420898439	-445.4628906250001	890.1672363281252	-515.0960693359376	-512.1829833984376	935.623962402344	-550.5676269531251	-588.3940429687501	702.9063720703126	-670.8244018554689	-544.6392822265626	665.6608276367189	-624.5394897460939	-527.8452148437501	706.6998901367189	-715.6634521484376	-484.2168273925782	685.4068603515626	-1021.675964355469	-477.0987243652345	680.1980590820314	-791.8349609375002	-600.8093261718751	798.4570312500002	-895.4966430664065	-627.6474609375001	776.577331542969	-920.8732910156252	-501.7268371582032	577.2371826171876	-1132.548583984375	-418.7274780273439	569.3867797851564	-1155.239624023438	-394.399627685547	607.8736572265626	-1143.179565429688	-387.0106506347657	519.0424194335939	-1163.861572265625	-257.1307067871094	446.9627685546876	-1177.252197265625	-240.6971893310547	435.1884155273439	-1064.624877929688	-283.7292785644532	281.1096191406251	-1100.424560546875	-333.2113342285157	250.1563110351563	-1168.027099609375	-305.3825378417969	235.8328399658204	-1132.726684570313	-355.8509521484376	176.47119140625	-1097.515991210938	-455.5303955078126	92.37615203857423	-1142.317138671875	-432.0692443847657	100.5753402709961	-1057.234619140625	-520.5119018554689	49.18640899658205	-1094.419555664063	-303.6462707519532	62.42005920410158	-1083.715209960938	-307.3575744628907	64.83571624755861	-1130.217041015625	-344.0932617187501	42.27669906616212	-1174.584594726563	-445.4172668457032	532.5864257812501	-691.5679931640626	-377.8338012695313	543.8419189453126	-685.0282592773439	-363.0715332031251	571.1838989257814	-693.2578735351564	-319.9520263671876	481.651824951172	-689.7243652343751	-249.7239227294922	423.8396301269532	-693.5260620117189	-248.1555480957032	417.2620239257814	-812.0059814453127	-252.9016876220704	293.2897033691407	-723.8300781250001	-351.7227783203126	270.6942749023438	-675.3853759765626	-320.0187988281251	243.7432708740235	-695.1552734375001	-341.9103393554688	197.2077026367188	-721.5938110351564	-476.2033996582032	93.64537048339845	-699.4265136718751	-454.4250488281251	98.31518554687503	-786.2401123046877	-538.6773681640626	49.30031585693361	-746.5823974609376	-325.3004150390626	63.07956695556642	-755.9951782226564	-322.0495910644532	61.12862396240236	-719.4776000976564	-358.8980712890626	41.92807769775391	-666.1631469726564	-622.5208129882814	777.3171386718752	-864.8684692382815	nan	nan	nan	
858	4.285	-35.15689086914063	1274.549438476563	-902.0887451171877	-169.5342559814453	1252.05029296875	-982.2775878906252	-217.3360595703126	1241.47900390625	-822.8967285156252	-287.4894409179688	1140.0419921875	-903.5581665039065	-500.0029907226564	924.735046386719	-901.480163574219	-208.0127716064454	1016.195983886719	-907.1942138671877	-217.3635559082032	1081.449462890625	-1079.807250976563	-383.6896972656251	1007.493530273438	-1230.2919921875	-390.165740966797	958.9785766601565	-1221.607788085938	-434.9661865234376	972.1077880859377	-1260.75732421875	-476.6410217285157	930.537780761719	-1273.923706054688	-529.0714111328126	973.2090454101565	-1222.79345703125	-591.3682861328126	726.7670288085939	-1115.904663085938	-556.8116455078126	692.7882080078126	-1166.21630859375	-536.7371826171876	721.4174804687501	-1076.656005859375	-218.3793029785157	1064.66015625	-718.1047363281251	-360.3436584472657	977.8853149414065	-562.1268310546876	-366.4307250976563	927.9708251953127	-574.1589965820314	-406.0579833984376	936.0669555664065	-528.6126098632814	-444.8157958984376	888.5379638671877	-515.0093383789064	-511.1989746093751	934.1719360351565	-550.4420166015626	-588.1432495117189	701.8448486328126	-670.8102416992189	-544.4972534179689	664.3861083984376	-624.6720581054689	-527.5896606445314	705.3765869140626	-715.8133544921876	-484.2512207031251	684.1701049804689	-1021.678894042969	-476.876434326172	678.2807617187501	-791.8023071289065	-600.4888305664064	796.811706542969	-895.4646606445315	-627.3176269531251	775.049743652344	-920.9038085937502	-501.483612060547	576.0739746093751	-1132.630126953125	-418.2122192382814	568.6245117187501	-1155.255004882813	-394.2322082519532	607.3270874023439	-1143.205810546875	-386.6848449707032	518.3334350585939	-1163.969970703125	-256.5762023925782	446.6384277343751	-1177.331298828125	-240.0652923583985	434.545623779297	-1064.95751953125	-283.4876403808594	281.0692749023438	-1100.502685546875	-332.8848571777344	249.9338989257813	-1168.040771484375	-305.3225402832032	235.6766204833985	-1132.72314453125	-355.7674255371094	176.4486846923828	-1097.513305664063	-455.4792785644532	92.37084197998048	-1142.301025390625	-432.0093078613282	100.589340209961	-1057.224609375	-520.4887084960939	49.22727966308595	-1094.420654296875	-303.6167297363282	62.36338043212892	-1083.74951171875	-307.3005371093751	64.80542755126955	-1130.21044921875	-344.1881103515626	42.28485107421876	-1174.616577148438	-445.1161193847657	531.6743164062501	-691.6177368164064	-377.6618041992188	542.9317626953126	-685.3037109375001	-362.6817932128907	570.1480712890626	-693.3063964843751	-319.3974914550782	480.8148193359376	-689.7954711914064	-249.0575714111329	423.4682006835939	-693.7460327148439	-247.4139404296876	416.7736816406251	-812.2995605468752	-252.3473815917969	292.7947387695313	-724.0457763671876	-351.1201477050782	270.4055786132813	-675.6342773437501	-319.9323425292969	243.6724090576172	-695.2910766601564	-341.7427062988282	197.0888671875001	-721.7031860351564	-476.1252441406251	93.65555572509767	-699.4686889648439	-454.4331359863282	98.28528594970706	-786.3459472656252	-538.4868164062501	48.94884490966798	-746.7636718750001	-325.2350463867188	62.99210357666017	-756.0759277343751	-322.0188598632813	61.07136917114259	-719.4398193359376	-358.8531188964844	41.96705627441407	-666.1530761718751	-622.2570190429689	776.0128173828127	-864.9202880859377	nan	nan	nan	
